STARTFONT 2.1
FONT -sun-helmet-bold-r-normal--20-200-75-75-p-125-adobe-fontspecific
SIZE 20 75 75
FONTBOUNDINGBOX 27 23 -5 -4

STARTPROPERTIES 28
FOUNDRY "sun"
FAMILY_NAME "helmet"
WEIGHT_NAME "bold"
SLANT "r"
SETWIDTH_NAME "normal"
ADD_STYLE_NAME ""
PIXEL_SIZE 21
POINT_SIZE 200
RESOLUTION_X 75
RESOLUTION_Y 75
SPACING "p"
AVERAGE_WIDTH 125
CHARSET_REGISTRY "adobe"
CHARSET_ENCODING "fontspecific"
COPYRIGHT "© 1999 Sun Microsystems, Inc."
RAW_PIXELSIZE 1000
RAW_POINTSIZE 964
RAW_ASCENT 945
RAW_DESCENT 196
RAW_AVERAGE_WIDTH 6034
FACE_NAME "HelmetBoldItalic5"
_XMBDFED_INFO "Edited with xmbdfed 2.4."
WEIGHT 10
X_HEIGHT -2
QUAD_WIDTH 12
DEFAULT_CHAR 4
FONT_DESCENT 4
FONT_ASCENT 19
ENDPROPERTIES

CHARS 202

STARTCHAR char32
ENCODING 32
SWIDTH 30 0
DWIDTH 7 0
BBX 0 0 0 0
BITMAP
ENDCHAR

STARTCHAR char33
ENCODING 33
SWIDTH 30 0
DWIDTH 7 0
BBX 4 15 2 0
BITMAP
F0
F0
F0
F0
F0
F0
E0
60
60
00
00
F0
F0
F0
F0
ENDCHAR

STARTCHAR char34
ENCODING 34
SWIDTH 43 0
DWIDTH 10 0
BBX 9 8 1 7
BITMAP
F780
F780
F780
F780
3180
7300
E700
C600
ENDCHAR

STARTCHAR char35
ENCODING 35
SWIDTH 8 0
DWIDTH 12 0
BBX 11 15 0 0
BITMAP
0880
0880
0880
1980
7FE0
1980
1100
1100
1100
FFC0
7FC0
3300
3300
2200
2200
ENDCHAR

STARTCHAR char36
ENCODING 36
SWIDTH 20 0
DWIDTH 15 0
BBX 13 18 0 -2
BITMAP
0300
0F80
3FE0
3FF0
7FF0
7B70
7F00
3FE0
3FF0
0FF0
03F8
FB78
7EF8
7FF0
3FE0
1FC0
0300
0300
ENDCHAR

STARTCHAR char37
ENCODING 37
SWIDTH 3 0
DWIDTH 21 0
BBX 19 15 0 0
BITMAP
3C1C00
7E1800
FF3800
E73800
E77000
E77780
E7EFC0
FFEFE0
7EDCE0
3DDCE0
019CE0
039CE0
039FE0
070FC0
030780
ENDCHAR

STARTCHAR char38
ENCODING 38
SWIDTH 25 0
DWIDTH 16 0
BBX 15 15 0 0
BITMAP
0FC0
1FE0
3FF0
3CF0
3CF0
1FF0
1FE0
3FC0
7FFC
FBF8
F1F8
F9F0
7FF8
7FFC
1F3E
ENDCHAR

STARTCHAR char39
ENCODING 39
SWIDTH 25 0
DWIDTH 6 0
BBX 4 8 1 7
BITMAP
30
70
E0
C0
F0
F0
F0
F0
ENDCHAR

STARTCHAR char40
ENCODING 40
SWIDTH 34 0
DWIDTH 8 0
BBX 6 19 2 -4
BITMAP
38
38
78
70
70
F0
F0
F0
F0
F0
F0
F0
F0
F0
70
70
78
38
38
ENDCHAR

STARTCHAR char41
ENCODING 41
SWIDTH 34 0
DWIDTH 8 0
BBX 6 19 0 -4
BITMAP
F0
70
78
78
38
3C
3C
3C
3C
3C
3C
3C
3C
3C
38
78
78
70
F0
ENDCHAR

STARTCHAR char42
ENCODING 42
SWIDTH 38 0
DWIDTH 9 0
BBX 8 9 0 6
BITMAP
18
18
D9
FF
7F
3C
7E
66
22
ENDCHAR

STARTCHAR char43
ENCODING 43
SWIDTH 20 0
DWIDTH 15 0
BBX 12 12 1 0
BITMAP
0E00
0E00
0E00
0E00
FFF0
FFF0
FFF0
0E00
0E00
0E00
0E00
0E00
ENDCHAR

STARTCHAR char44
ENCODING 44
SWIDTH 30 0
DWIDTH 7 0
BBX 4 8 1 -4
BITMAP
F0
F0
F0
F0
30
70
E0
80
ENDCHAR

STARTCHAR char45
ENCODING 45
SWIDTH 34 0
DWIDTH 8 0
BBX 7 3 1 4
BITMAP
FE
FE
FE
ENDCHAR

STARTCHAR char46
ENCODING 46
SWIDTH 30 0
DWIDTH 7 0
BBX 4 4 1 0
BITMAP
F0
F0
F0
F0
ENDCHAR

STARTCHAR char47
ENCODING 47
SWIDTH 43 0
DWIDTH 10 0
BBX 9 15 0 0
BITMAP
0780
0780
0F00
0F00
0F00
1E00
1E00
1E00
3C00
3C00
3C00
7800
7800
7800
F000
ENDCHAR

STARTCHAR char48
ENCODING 48
SWIDTH 20 0
DWIDTH 15 0
BBX 13 14 0 0
BITMAP
0F80
3FE0
7FF0
78F0
F878
F078
F078
F078
F078
F878
78F0
3FE0
3FE0
0F80
ENDCHAR

STARTCHAR char49
ENCODING 49
SWIDTH 20 0
DWIDTH 15 0
BBX 8 14 2 0
BITMAP
07
0F
1F
FF
FF
FF
0F
0F
0F
0F
0F
0F
0F
0F
ENDCHAR

STARTCHAR char50
ENCODING 50
SWIDTH 20 0
DWIDTH 15 0
BBX 12 14 1 0
BITMAP
1F00
7FC0
7FE0
F1E0
F1E0
F1E0
03C0
0F80
1F00
7E00
7C00
FFF0
FFF0
FFF0
ENDCHAR

STARTCHAR char51
ENCODING 51
SWIDTH 20 0
DWIDTH 15 0
BBX 11 14 1 0
BITMAP
1F00
3FC0
7FC0
F1E0
F1C0
07C0
07C0
07E0
F1E0
F1E0
F1E0
7FC0
7FC0
1F00
ENDCHAR

STARTCHAR char52
ENCODING 52
SWIDTH 20 0
DWIDTH 15 0
BBX 12 14 1 0
BITMAP
07C0
07C0
0FC0
1FC0
3FC0
7BC0
F3C0
E3F0
FFF0
FFF0
FFF0
03C0
03C0
03C0
ENDCHAR

STARTCHAR char53
ENCODING 53
SWIDTH 20 0
DWIDTH 15 0
BBX 12 14 1 0
BITMAP
3FE0
7FE0
7FE0
7800
7780
7FE0
FFE0
F1F0
00F0
10F0
F1F0
FFE0
7FC0
1F80
ENDCHAR

STARTCHAR char54
ENCODING 54
SWIDTH 20 0
DWIDTH 15 0
BBX 12 15 1 0
BITMAP
0F80
3FE0
7FE0
79F0
F000
F780
FFE0
FFE0
F1F0
F0F0
F0F0
71F0
7FE0
3FC0
1F80
ENDCHAR

STARTCHAR char55
ENCODING 55
SWIDTH 20 0
DWIDTH 15 0
BBX 12 14 1 0
BITMAP
FFF0
FFF0
FFF0
01E0
03C0
0780
0780
0700
0F00
0F00
0E00
1E00
1E00
1E00
ENDCHAR

STARTCHAR char56
ENCODING 56
SWIDTH 20 0
DWIDTH 15 0
BBX 13 15 0 0
BITMAP
1FC0
3FE0
7FF0
7CF0
7870
78F0
7FF0
3FE0
7FF0
F878
F078
F8F8
7FF8
7FF0
1FC0
ENDCHAR

STARTCHAR char57
ENCODING 57
SWIDTH 20 0
DWIDTH 15 0
BBX 13 14 0 0
BITMAP
1F80
3FE0
7FF0
F8F8
F078
F0F8
FDF8
7FF8
7FF8
1F78
F8F0
7FF0
7FE0
1F80
ENDCHAR

STARTCHAR char58
ENCODING 58
SWIDTH 30 0
DWIDTH 7 0
BBX 4 11 2 0
BITMAP
F0
F0
F0
F0
00
00
00
F0
F0
F0
F0
ENDCHAR

STARTCHAR char59
ENCODING 59
SWIDTH 30 0
DWIDTH 7 0
BBX 4 15 2 -4
BITMAP
F0
F0
F0
F0
00
00
00
F0
F0
F0
F0
30
70
E0
80
ENDCHAR

STARTCHAR char60
ENCODING 60
SWIDTH 12 0
DWIDTH 13 0
BBX 10 11 1 0
BITMAP
0040
00C0
0780
1C00
7000
C000
E000
3800
0E00
01C0
0040
ENDCHAR

STARTCHAR char61
ENCODING 61
SWIDTH 20 0
DWIDTH 15 0
BBX 14 8 0 2
BITMAP
FFFC
FFFC
FFFC
0000
0000
FFFC
FFFC
FFFC
ENDCHAR

STARTCHAR char62
ENCODING 62
SWIDTH 12 0
DWIDTH 13 0
BBX 10 11 1 0
BITMAP
8000
C000
7800
0E00
0380
00C0
01C0
0700
1C00
E000
8000
ENDCHAR

STARTCHAR char63
ENCODING 63
SWIDTH 12 0
DWIDTH 13 0
BBX 11 15 1 0
BITMAP
1F00
7FC0
7FE0
F3E0
F1E0
03E0
0FC0
1F80
1E00
1E00
0000
1E00
1E00
1E00
1E00
ENDCHAR

STARTCHAR char64
ENCODING 64
SWIDTH 11 0
DWIDTH 23 0
BBX 15 15 3 0
BITMAP
07E0
1838
300C
6394
66F6
CC76
D826
D826
D866
D844
4CC8
6770
3004
1818
07E0
ENDCHAR

STARTCHAR char65
ENCODING 65
SWIDTH 25 0
DWIDTH 16 0
BBX 15 15 0 0
BITMAP
07C0
0FC0
0FC0
0FE0
1FE0
1FE0
1EF0
3EF0
3CF8
7CF8
7FF8
7FFC
FFFC
F83C
F03E
ENDCHAR

STARTCHAR char66
ENCODING 66
SWIDTH 25 0
DWIDTH 16 0
BBX 13 15 1 0
BITMAP
FFE0
FFF0
FFF8
FCF8
F078
F0F8
FFF0
FFF0
FFF8
F078
F078
F0F8
FFF8
FFF0
FFE0
ENDCHAR

STARTCHAR char67
ENCODING 67
SWIDTH 25 0
DWIDTH 16 0
BBX 14 15 1 0
BITMAP
0F80
1FE0
3FF0
7CF8
7878
F07C
F000
F000
F000
F07C
F878
7CF8
3FF0
1FE0
0FC0
ENDCHAR

STARTCHAR char68
ENCODING 68
SWIDTH 25 0
DWIDTH 16 0
BBX 13 15 1 0
BITMAP
FF80
FFE0
FFE0
F3F0
F0F8
F078
F078
F078
F078
F078
F0F8
F1F0
FFF0
FFE0
FF80
ENDCHAR

STARTCHAR char69
ENCODING 69
SWIDTH 20 0
DWIDTH 15 0
BBX 13 15 1 0
BITMAP
FFF8
FFF8
FFF8
F800
F800
F800
FFE0
FFE0
FFE0
F000
F000
F000
FFF8
FFF8
FFF8
ENDCHAR

STARTCHAR char70
ENCODING 70
SWIDTH 16 0
DWIDTH 14 0
BBX 12 15 1 0
BITMAP
FFF0
FFF0
FFF0
F000
F000
F000
FFE0
FFE0
FFE0
F000
F000
F000
F000
F000
F000
ENDCHAR

STARTCHAR char71
ENCODING 71
SWIDTH 29 0
DWIDTH 17 0
BBX 14 15 1 0
BITMAP
0FC0
1FF0
3FF0
7CF8
7878
F000
F000
F0FC
F0FC
F0FC
F83C
787C
3FFC
1FFC
0F9C
ENDCHAR

STARTCHAR char72
ENCODING 72
SWIDTH 25 0
DWIDTH 16 0
BBX 13 15 1 0
BITMAP
F078
F078
F078
F078
F078
F078
FFF8
FFF8
FFF8
F078
F078
F078
F078
F078
F078
ENDCHAR

STARTCHAR char73
ENCODING 73
SWIDTH 30 0
DWIDTH 7 0
BBX 4 15 1 0
BITMAP
F0
F0
F0
F0
F0
F0
F0
F0
F0
F0
F0
F0
F0
F0
F0
ENDCHAR

STARTCHAR char74
ENCODING 74
SWIDTH 12 0
DWIDTH 13 0
BBX 11 15 0 0
BITMAP
01E0
01E0
01E0
01E0
01E0
01E0
01E0
01E0
01E0
F1E0
F1E0
F3E0
7FE0
3FC0
1F00
ENDCHAR

STARTCHAR char75
ENCODING 75
SWIDTH 29 0
DWIDTH 17 0
BBX 15 15 1 0
BITMAP
F0FC
F1F8
F1F0
F3E0
F7C0
FF80
FF80
FFC0
FFC0
FFE0
F3F0
F1F8
F0F8
F0FC
F07E
ENDCHAR

STARTCHAR char76
ENCODING 76
SWIDTH 12 0
DWIDTH 13 0
BBX 11 15 1 0
BITMAP
F000
F000
F000
F000
F000
F000
F000
F000
F000
F000
F000
F000
FFE0
FFE0
FFE0
ENDCHAR

STARTCHAR char77
ENCODING 77
SWIDTH 38 0
DWIDTH 19 0
BBX 16 15 1 0
BITMAP
FC3F
FC7F
FC7F
FE7F
FE7F
FEFF
FEFF
FFFF
F7EF
F7EF
F7EF
F7CF
F3CF
F3CF
F3C7
ENDCHAR

STARTCHAR char78
ENCODING 78
SWIDTH 25 0
DWIDTH 16 0
BBX 13 15 1 0
BITMAP
F078
F878
FC78
FC78
FE78
FE78
FF78
FFF8
F7F8
F7F8
F3F8
F1F8
F1F8
F0F8
F078
ENDCHAR

STARTCHAR char79
ENCODING 79
SWIDTH 29 0
DWIDTH 17 0
BBX 14 15 1 0
BITMAP
0FC0
1FE0
3FF0
7CF8
7878
F07C
F03C
F03C
F03C
F03C
F878
7CF8
3FF0
1FE0
0FC0
ENDCHAR

STARTCHAR char80
ENCODING 80
SWIDTH 20 0
DWIDTH 15 0
BBX 13 15 1 0
BITMAP
FFC0
FFF0
FFF0
F0F8
F078
F078
F0F8
FFF8
FFF0
FFE0
F100
F000
F000
F000
F000
ENDCHAR

STARTCHAR char81
ENCODING 81
SWIDTH 29 0
DWIDTH 17 0
BBX 15 16 1 -1
BITMAP
0FC0
1FE0
3FF0
7CF8
7878
F03C
F03C
F03C
F0BC
F1FC
FBFC
7CF8
3FF8
1FF8
0FBC
0018
ENDCHAR

STARTCHAR char82
ENCODING 82
SWIDTH 25 0
DWIDTH 16 0
BBX 14 15 1 0
BITMAP
FFE0
FFF0
FFF8
F0F8
F078
F078
F0F8
FFF0
FFE0
FFF0
F0F8
F078
F078
F078
F07C
ENDCHAR

STARTCHAR char83
ENCODING 83
SWIDTH 20 0
DWIDTH 15 0
BBX 13 15 0 0
BITMAP
0FC0
3FE0
7FF0
7CF0
78F0
7F00
3FC0
3FF0
0FF8
01F8
F878
7CF8
7FF0
3FE0
0FC0
ENDCHAR

STARTCHAR char84
ENCODING 84
SWIDTH 12 0
DWIDTH 13 0
BBX 13 15 0 0
BITMAP
FFF8
FFF8
FFF8
0F00
0F00
0F00
0F00
0F00
0F00
0F00
0F00
0F00
0F00
0F00
0F00
ENDCHAR

STARTCHAR char85
ENCODING 85
SWIDTH 25 0
DWIDTH 16 0
BBX 13 15 1 0
BITMAP
F078
F078
F078
F078
F078
F078
F078
F078
F078
F078
F078
F8F8
7FF0
3FE0
1FC0
ENDCHAR

STARTCHAR char86
ENCODING 86
SWIDTH 16 0
DWIDTH 14 0
BBX 13 15 0 0
BITMAP
F078
F878
F8F8
78F8
78F0
7CF0
3DF0
3DE0
3DE0
3DE0
1FC0
1FC0
1FC0
0F80
0F80
ENDCHAR

STARTCHAR char87
ENCODING 87
SWIDTH 3 0
DWIDTH 21 0
BBX 21 15 -1 0
BITMAP
78F8F0
78F8F0
78F9F0
7CF9F0
3CF9E0
3DDDE0
3DDDE0
3DDDE0
1FDFC0
1FDFC0
1FDFC0
1F9FC0
0F8F80
0F8F80
0F8F80
ENDCHAR

STARTCHAR char88
ENCODING 88
SWIDTH 25 0
DWIDTH 16 0
BBX 15 15 0 0
BITMAP
F87C
7C7C
7CFC
3EF8
1FF0
1FE0
0FE0
0FC0
0FE0
1FF0
3FF0
3EF8
7CFC
FC7C
787E
ENDCHAR

STARTCHAR char89
ENCODING 89
SWIDTH 20 0
DWIDTH 15 0
BBX 15 15 0 0
BITMAP
F87C
F87C
7C78
3CF8
3EF0
1FF0
1FE0
0FC0
0FC0
0780
0780
0780
0780
0780
0780
ENDCHAR

STARTCHAR char90
ENCODING 90
SWIDTH 16 0
DWIDTH 14 0
BBX 13 15 0 0
BITMAP
FFF8
FFF8
FFF8
01F0
03F0
07E0
0FC0
0F80
1F80
3F00
7E00
7C00
FFF8
FFF8
FFF8
ENDCHAR

STARTCHAR char91
ENCODING 91
SWIDTH 38 0
DWIDTH 9 0
BBX 7 19 2 -4
BITMAP
FE
FE
FE
F0
F0
F0
F0
F0
F0
F0
F0
F0
F0
F0
F0
F0
FE
FE
FE
ENDCHAR

STARTCHAR char92
ENCODING 92
SWIDTH 25 0
DWIDTH 6 0
BBX 6 15 0 0
BITMAP
80
C0
40
40
60
20
20
30
10
10
18
18
08
0C
0C
ENDCHAR

STARTCHAR char93
ENCODING 93
SWIDTH 38 0
DWIDTH 9 0
BBX 7 19 0 -4
BITMAP
FE
FE
FE
1E
1E
1E
1E
1E
1E
1E
1E
1E
1E
1E
1E
1E
FE
FE
FE
ENDCHAR

STARTCHAR char94
ENCODING 94
SWIDTH 0 0
DWIDTH 0 0
BBX 8 3 -4 16
BITMAP
3C
7E
EF
ENDCHAR

STARTCHAR char95
ENCODING 95
SWIDTH 8 0
DWIDTH 12 0
BBX 12 1 0 -3
BITMAP
FFF0
ENDCHAR

STARTCHAR char96
ENCODING 96
SWIDTH 0 0
DWIDTH 0 0
BBX 6 3 -4 12
BITMAP
F8
78
3C
ENDCHAR

STARTCHAR char97
ENCODING 97
SWIDTH 12 0
DWIDTH 13 0
BBX 12 11 0 0
BITMAP
1F80
3FE0
7FF0
78F0
03F0
3FF0
7EF0
F0F0
FFF0
FFF0
3CF0
ENDCHAR

STARTCHAR char98
ENCODING 98
SWIDTH 16 0
DWIDTH 14 0
BBX 12 15 1 0
BITMAP
F000
F000
F000
F000
F780
FFE0
FFE0
F9F0
F0F0
F0F0
F0F0
F9F0
FFE0
FFE0
F780
ENDCHAR

STARTCHAR char99
ENCODING 99
SWIDTH 12 0
DWIDTH 13 0
BBX 12 11 0 0
BITMAP
0F80
3FC0
7FE0
F9F0
F000
F000
F000
F8F0
7FE0
3FC0
1F80
ENDCHAR

STARTCHAR char100
ENCODING 100
SWIDTH 16 0
DWIDTH 14 0
BBX 12 15 0 0
BITMAP
00F0
00F0
00F0
00F0
1EF0
7FF0
7FF0
F9F0
F0F0
F0F0
F0F0
F9F0
7FF0
7FF0
1EF0
ENDCHAR

STARTCHAR char101
ENCODING 101
SWIDTH 12 0
DWIDTH 13 0
BBX 12 11 0 0
BITMAP
0F80
3FC0
7FE0
79F0
FEF0
FFF0
F0F0
7800
7FF0
3FE0
1F80
ENDCHAR

STARTCHAR char102
ENCODING 102
SWIDTH 34 0
DWIDTH 8 0
BBX 8 15 0 0
BITMAP
0F
1F
3F
3C
FF
FF
FF
3C
3C
3C
3C
3C
3C
3C
3C
ENDCHAR

STARTCHAR char103
ENCODING 103
SWIDTH 16 0
DWIDTH 14 0
BBX 12 14 0 -3
BITMAP
1EF0
7FF0
7FF0
F9F0
F0F0
F0F0
F8F0
7FF0
7FF0
1EF0
00F0
79F0
7FE0
1F80
ENDCHAR

STARTCHAR char104
ENCODING 104
SWIDTH 16 0
DWIDTH 14 0
BBX 11 15 1 0
BITMAP
F000
F000
F000
F000
F780
FFC0
FFE0
FBE0
F1E0
F1E0
F1E0
F1E0
F1E0
F1E0
F1E0
ENDCHAR

STARTCHAR char105
ENCODING 105
SWIDTH 30 0
DWIDTH 7 0
BBX 4 15 1 0
BITMAP
F0
F0
F0
00
F0
F0
F0
F0
F0
F0
F0
F0
F0
F0
F0
ENDCHAR

STARTCHAR char106
ENCODING 106
SWIDTH 30 0
DWIDTH 7 0
BBX 6 18 -1 -3
BITMAP
3C
3C
3C
00
3C
3C
3C
3C
3C
3C
3C
3C
3C
3C
3C
FC
FC
F8
ENDCHAR

STARTCHAR char107
ENCODING 107
SWIDTH 12 0
DWIDTH 13 0
BBX 12 15 1 0
BITMAP
F000
F000
F000
F000
F1F0
F3E0
F7C0
FF80
FF00
FF00
FF80
FFC0
F3C0
F3E0
F1F0
ENDCHAR

STARTCHAR char108
ENCODING 108
SWIDTH 30 0
DWIDTH 7 0
BBX 4 15 1 0
BITMAP
F0
F0
F0
F0
F0
F0
F0
F0
F0
F0
F0
F0
F0
F0
F0
ENDCHAR

STARTCHAR char109
ENCODING 109
SWIDTH 3 0
DWIDTH 21 0
BBX 17 11 1 0
BITMAP
F78E00
FFDF00
FFFF80
FBFF80
F3E780
F1E780
F1E780
F1E780
F1E780
F1E780
F1E780
ENDCHAR

STARTCHAR char110
ENCODING 110
SWIDTH 16 0
DWIDTH 14 0
BBX 11 11 1 0
BITMAP
F780
FFC0
FFE0
FBE0
F1E0
F1E0
F1E0
F1E0
F1E0
F1E0
F1E0
ENDCHAR

STARTCHAR char111
ENCODING 111
SWIDTH 12 0
DWIDTH 13 0
BBX 12 11 0 0
BITMAP
1F80
3FC0
7FE0
F9F0
F0F0
F0F0
F0F0
F8F0
7FE0
3FC0
0F80
ENDCHAR

STARTCHAR char112
ENCODING 112
SWIDTH 16 0
DWIDTH 14 0
BBX 12 14 1 -3
BITMAP
F780
FFE0
FFE0
F9F0
F0F0
F0F0
F0F0
F9F0
FFE0
FFE0
F780
F000
F000
F000
ENDCHAR

STARTCHAR char113
ENCODING 113
SWIDTH 16 0
DWIDTH 14 0
BBX 12 14 0 -3
BITMAP
1EF0
7FF0
7FF0
F9F0
F0F0
F0F0
F0F0
F8F0
7FF0
7FF0
1EF0
00F0
00F0
00F0
ENDCHAR

STARTCHAR char114
ENCODING 114
SWIDTH 43 0
DWIDTH 10 0
BBX 9 11 1 0
BITMAP
F700
FF00
FF00
F880
F800
F000
F000
F000
F000
F000
F000
ENDCHAR

STARTCHAR char115
ENCODING 115
SWIDTH 8 0
DWIDTH 12 0
BBX 11 11 0 0
BITMAP
3F80
7FC0
F1E0
F800
FF00
7FC0
1FE0
F1E0
FFE0
7FC0
3F00
ENDCHAR

STARTCHAR char116
ENCODING 116
SWIDTH 34 0
DWIDTH 8 0
BBX 7 14 0 0
BITMAP
7C
7C
7C
FE
FE
FE
78
78
78
78
78
7E
3E
1E
ENDCHAR

STARTCHAR char117
ENCODING 117
SWIDTH 16 0
DWIDTH 14 0
BBX 11 11 1 0
BITMAP
F1E0
F1E0
F1E0
F1E0
F1E0
F1E0
F1E0
F3E0
FFE0
7FE0
3DE0
ENDCHAR

STARTCHAR char118
ENCODING 118
SWIDTH 8 0
DWIDTH 12 0
BBX 11 11 0 0
BITMAP
F1E0
F1E0
F1E0
7BC0
7BC0
7BC0
3B80
3F80
3F80
1F00
1F00
ENDCHAR

STARTCHAR char119
ENCODING 119
SWIDTH 38 0
DWIDTH 19 0
BBX 18 11 0 0
BITMAP
F1E780
F3E7C0
F3E780
7BE780
7BFF80
7FFF00
3F7F00
3F7F00
3F3E00
3E3E00
1E3E00
ENDCHAR

STARTCHAR char120
ENCODING 120
SWIDTH 12 0
DWIDTH 13 0
BBX 12 11 0 0
BITMAP
79E0
7BE0
3FC0
3F80
1F80
1F00
1F80
3F80
7FC0
FBE0
F9F0
ENDCHAR

STARTCHAR char121
ENCODING 121
SWIDTH 12 0
DWIDTH 13 0
BBX 12 14 0 -3
BITMAP
F1E0
F1E0
79E0
79E0
7BC0
3BC0
3FC0
3F80
1F80
1F80
1F00
7F00
7E00
7C00
ENDCHAR

STARTCHAR char122
ENCODING 122
SWIDTH 8 0
DWIDTH 12 0
BBX 11 11 0 0
BITMAP
7FC0
7FC0
7FC0
07C0
0F80
1F00
3E00
7C00
FFE0
FFE0
FFE0
ENDCHAR

STARTCHAR char123
ENCODING 123
SWIDTH 30 0
DWIDTH 7 0
BBX 5 19 1 -4
BITMAP
38
30
20
20
20
20
20
60
40
80
60
60
60
60
60
60
60
70
38
ENDCHAR

STARTCHAR char124
ENCODING 124
SWIDTH 25 0
DWIDTH 6 0
BBX 2 15 2 0
BITMAP
C0
C0
C0
C0
C0
C0
C0
C0
C0
C0
C0
C0
C0
C0
C0
ENDCHAR

STARTCHAR char125
ENCODING 125
SWIDTH 30 0
DWIDTH 7 0
BBX 5 19 1 -4
BITMAP
C0
20
20
20
20
30
30
30
10
08
30
30
30
30
30
30
30
70
E0
ENDCHAR

STARTCHAR char126
ENCODING 126
SWIDTH 0 0
DWIDTH 0 0
BBX 8 3 -4 16
BITMAP
77
FF
EE
ENDCHAR

STARTCHAR char128
ENCODING 128
SWIDTH 29 0
DWIDTH 17 0
BBX 16 15 -1 0
BITMAP
01F0
07FC
0FFE
1F3E
1E1F
3E0F
FFE0
3C00
FFE0
3E0F
3E1F
1F3F
0FFE
07FC
01F0
ENDCHAR

STARTCHAR char130
ENCODING 130
SWIDTH 25 0
DWIDTH 6 0
BBX 4 8 1 -4
BITMAP
F0
F0
F0
F0
30
70
E0
80
ENDCHAR

STARTCHAR char131
ENCODING 131
SWIDTH 0 0
DWIDTH 0 0
BBX 8 3 -4 16
BITMAP
3C
7E
EF
ENDCHAR

STARTCHAR char132
ENCODING 132
SWIDTH 3 0
DWIDTH 11 0
BBX 8 8 1 -4
BITMAP
FF
FF
EF
EF
77
6E
EC
88
ENDCHAR

STARTCHAR char133
ENCODING 133
SWIDTH 7 0
DWIDTH 22 0
BBX 16 3 2 0
BITMAP
C183
C183
C183
ENDCHAR

STARTCHAR char134
ENCODING 134
SWIDTH 8 0
DWIDTH 12 0
BBX 11 18 0 -3
BITMAP
0F00
0F00
0F00
0F00
FFE0
FFE0
FFE0
0F00
0F00
0F00
0F00
0F00
0F00
0F00
0F00
0F00
0F00
0F00
ENDCHAR

STARTCHAR char136
ENCODING 136
SWIDTH 0 0
DWIDTH 0 0
BBX 8 3 -4 11
BITMAP
3C
7E
E7
ENDCHAR

STARTCHAR char138
ENCODING 138
SWIDTH 3 0
DWIDTH 21 0
BBX 0 0 0 0
BITMAP
ENDCHAR

STARTCHAR char139
ENCODING 139
SWIDTH 30 0
DWIDTH 7 0
BBX 3 7 2 2
BITMAP
20
60
C0
80
E0
60
20
ENDCHAR

STARTCHAR char140
ENCODING 140
SWIDTH 16 0
DWIDTH 24 0
BBX 22 15 0 0
BITMAP
0FFFFC
1FFFFC
3FFFFC
7E7FFC
7C3E00
F83E00
F03FF8
F01FF8
F01FF8
F83E00
783E00
7C7FFC
3FFFFC
1FFFFC
07FFFC
ENDCHAR

STARTCHAR char141
ENCODING 141
SWIDTH 3 0
DWIDTH 21 0
BBX 0 0 0 0
BITMAP
ENDCHAR

STARTCHAR char145
ENCODING 145
SWIDTH 30 0
DWIDTH 7 0
BBX 4 8 1 7
BITMAP
30
70
E0
C0
F0
F0
F0
F0
ENDCHAR

STARTCHAR char146
ENCODING 146
SWIDTH 30 0
DWIDTH 7 0
BBX 4 8 1 7
BITMAP
F0
F0
F0
F0
30
70
E0
C0
ENDCHAR

STARTCHAR char147
ENCODING 147
SWIDTH 3 0
DWIDTH 11 0
BBX 9 8 1 7
BITMAP
3180
7380
E700
C600
F780
F780
F780
F780
ENDCHAR

STARTCHAR char148
ENCODING 148
SWIDTH 3 0
DWIDTH 11 0
BBX 9 8 1 7
BITMAP
F780
F780
F780
F780
3180
7300
E700
C600
ENDCHAR

STARTCHAR char149
ENCODING 149
SWIDTH 30 0
DWIDTH 7 0
BBX 5 5 1 5
BITMAP
70
F8
F8
F8
70
ENDCHAR

STARTCHAR char150
ENCODING 150
SWIDTH 20 0
DWIDTH 15 0
BBX 12 3 1 4
BITMAP
FFF0
FFF0
FFF0
ENDCHAR

STARTCHAR char151
ENCODING 151
SWIDTH 20 0
DWIDTH 15 0
BBX 14 3 0 5
BITMAP
FFFC
FFFC
FFFC
ENDCHAR

STARTCHAR char152
ENCODING 152
SWIDTH 0 0
DWIDTH 0 0
BBX 8 4 -4 11
BITMAP
73
FE
FE
04
ENDCHAR

STARTCHAR char153
ENCODING 153
SWIDTH 38 0
DWIDTH 19 0
BBX 17 8 0 6
BITMAP
FFC380
96C300
10E500
10A500
10A700
10BB00
109B00
39D380
ENDCHAR

STARTCHAR char155
ENCODING 155
SWIDTH 30 0
DWIDTH 7 0
BBX 3 7 2 2
BITMAP
80
C0
60
20
E0
80
80
ENDCHAR

STARTCHAR char156
ENCODING 156
SWIDTH 3 0
DWIDTH 21 0
BBX 19 11 0 0
BITMAP
1F1F00
3FFF80
7FFFC0
F9F1C0
F0F9E0
F0FFE0
F0E1E0
F1F000
7FFFC0
3FFF80
1F1F00
ENDCHAR

STARTCHAR char157
ENCODING 157
SWIDTH 3 0
DWIDTH 21 0
BBX 0 0 0 0
BITMAP
ENDCHAR

STARTCHAR char159
ENCODING 159
SWIDTH 20 0
DWIDTH 15 0
BBX 15 19 0 0
BITMAP
3DE0
3DE0
3DE0
0000
F87C
F87C
7CF8
7CF8
3EF0
1FF0
1FE0
0FC0
0FC0
0780
0780
0780
0780
0780
0780
ENDCHAR

STARTCHAR char160
ENCODING 160
SWIDTH 30 0
DWIDTH 7 0
BBX 0 0 0 0
BITMAP
ENDCHAR

STARTCHAR char161
ENCODING 161
SWIDTH 30 0
DWIDTH 7 0
BBX 4 15 1 0
BITMAP
F0
F0
F0
F0
00
00
60
60
60
F0
F0
F0
F0
F0
F0
ENDCHAR

STARTCHAR char162
ENCODING 162
SWIDTH 12 0
DWIDTH 13 0
BBX 12 14 0 -2
BITMAP
0600
1F80
3FC0
7FE0
FEF0
F600
F600
F400
F5F0
7FE0
7FE0
1F80
0600
0600
ENDCHAR

STARTCHAR char163
ENCODING 163
SWIDTH 12 0
DWIDTH 13 0
BBX 12 15 1 0
BITMAP
1F00
7FC0
7FE0
F9E0
F9E0
F800
FF00
FF00
FF00
3C00
3C00
3820
7FE0
FFF0
47C0
ENDCHAR

STARTCHAR char164
ENCODING 164
SWIDTH 0 0
DWIDTH 0 0
BBX 6 3 -2 16
BITMAP
78
70
F0
ENDCHAR

STARTCHAR char165
ENCODING 165
SWIDTH 0 0
DWIDTH 0 0
BBX 8 3 -4 16
BITMAP
E7
7E
3C
ENDCHAR

STARTCHAR char166
ENCODING 166
SWIDTH 3 0
DWIDTH 21 0
BBX 0 0 0 0
BITMAP
ENDCHAR

STARTCHAR char167
ENCODING 167
SWIDTH 16 0
DWIDTH 14 0
BBX 13 19 0 -4
BITMAP
0F80
1FE0
3FE0
3CF0
3C00
1F00
3FE0
7FF0
F1F8
F878
7F78
3FF0
0FE0
03F0
00F0
3CF0
3FF0
1FE0
0F80
ENDCHAR

STARTCHAR char168
ENCODING 168
SWIDTH 0 0
DWIDTH 0 0
BBX 10 3 -5 12
BITMAP
F3C0
F3C0
F3C0
ENDCHAR

STARTCHAR char169
ENCODING 169
SWIDTH 29 0
DWIDTH 17 0
BBX 15 14 0 0
BITMAP
07C0
0820
1018
23E8
4C64
DC26
D806
D806
D806
4C04
4E44
2388
1810
07E0
ENDCHAR

STARTCHAR char170
ENCODING 170
SWIDTH 0 0
DWIDTH 0 0
BBX 10 3 -5 16
BITMAP
F3C0
F3C0
F3C0
ENDCHAR

STARTCHAR char171
ENCODING 171
SWIDTH 38 0
DWIDTH 9 0
BBX 7 9 1 1
BITMAP
12
36
FE
FE
D8
FC
FE
7E
36
ENDCHAR

STARTCHAR char172
ENCODING 172
SWIDTH 20 0
DWIDTH 15 0
BBX 14 6 0 0
BITMAP
FFFC
000C
000C
000C
000C
000C
ENDCHAR

STARTCHAR char174
ENCODING 174
SWIDTH 29 0
DWIDTH 17 0
BBX 15 14 0 0
BITMAP
07C0
0820
1010
2FC8
4664
C666
C6C6
C786
C786
46C6
4E74
2008
1010
0FE0
ENDCHAR

STARTCHAR char176
ENCODING 176
SWIDTH 30 0
DWIDTH 7 0
BBX 8 6 -2 8
BITMAP
18
66
C3
C3
42
3C
ENDCHAR

STARTCHAR char177
ENCODING 177
SWIDTH 8 0
DWIDTH 12 0
BBX 11 13 0 0
BITMAP
0C00
0C00
0C00
0C00
0C00
FFE0
0C00
0C00
0C00
0C00
0C00
0000
FFE0
ENDCHAR

STARTCHAR char179
ENCODING 179
SWIDTH 3 0
DWIDTH 21 0
BBX 0 0 0 0
BITMAP
ENDCHAR

STARTCHAR char180
ENCODING 180
SWIDTH 0 0
DWIDTH 0 0
BBX 6 3 -2 12
BITMAP
7C
78
F0
ENDCHAR

STARTCHAR char182
ENCODING 182
SWIDTH 20 0
DWIDTH 15 0
BBX 9 18 2 -3
BITMAP
3F80
7180
F180
F180
F180
F180
7180
7180
1180
1180
1180
1180
1180
1180
1180
1180
1180
1180
ENDCHAR

STARTCHAR char183
ENCODING 183
SWIDTH 17 0
DWIDTH 4 0
BBX 4 3 0 5
BITMAP
60
F0
60
ENDCHAR

STARTCHAR char184
ENCODING 184
SWIDTH 0 0
DWIDTH 0 0
BBX 4 5 -2 -4
BITMAP
F0
F0
F0
70
E0
ENDCHAR

STARTCHAR char186
ENCODING 186
SWIDTH 0 0
DWIDTH 0 0
BBX 8 3 -4 16
BITMAP
77
FF
EE
ENDCHAR

STARTCHAR char187
ENCODING 187
SWIDTH 38 0
DWIDTH 9 0
BBX 7 9 1 1
BITMAP
48
DC
FE
FE
36
7E
FE
FC
90
ENDCHAR

STARTCHAR char189
ENCODING 189
SWIDTH 3 0
DWIDTH 21 0
BBX 0 0 0 0
BITMAP
ENDCHAR

STARTCHAR char191
ENCODING 191
SWIDTH 12 0
DWIDTH 13 0
BBX 11 15 0 0
BITMAP
0F00
0F00
0F00
0F00
0000
0000
0F00
1F00
7E00
FC00
F9E0
F9E0
7FE0
7FC0
1F00
ENDCHAR

STARTCHAR char192
ENCODING 192
SWIDTH 25 0
DWIDTH 16 0
BBX 15 19 0 0
BITMAP
1F00
0F00
0700
0000
07C0
0FC0
0FC0
0FE0
1FE0
1FE0
1EF0
3EF0
3CF0
7CF8
7FF8
7FFC
FFFC
F83C
F03E
ENDCHAR

STARTCHAR char193
ENCODING 193
SWIDTH 25 0
DWIDTH 16 0
BBX 15 19 0 0
BITMAP
03C0
0780
0700
0000
07C0
0FC0
0FC0
0FE0
1FE0
1FE0
1EF0
3EF0
3CF0
7CF8
7FF8
7FFC
FFFC
F83C
F03E
ENDCHAR

STARTCHAR char194
ENCODING 194
SWIDTH 25 0
DWIDTH 16 0
BBX 15 19 0 0
BITMAP
0F80
0FC0
1DC0
0000
07C0
0FC0
0FC0
0FE0
1FE0
1FE0
1EF0
3EF0
3CF0
7CF8
7FF8
7FFC
FFFC
F83C
F03E
ENDCHAR

STARTCHAR char195
ENCODING 195
SWIDTH 25 0
DWIDTH 16 0
BBX 15 19 0 0
BITMAP
0EE0
1FC0
19C0
0000
07C0
0FC0
0FC0
0FE0
1FE0
1FE0
1EF0
3EF0
3CF0
7CF8
7FF8
7FFC
FFFC
F83C
F03E
ENDCHAR

STARTCHAR char196
ENCODING 196
SWIDTH 25 0
DWIDTH 16 0
BBX 15 19 0 0
BITMAP
1EF0
1EF0
1EF0
0000
07C0
07C0
07C0
0FE0
0FE0
1FE0
1EF0
3EF0
3EF8
3C78
7FF8
7FFC
FFFC
F83C
F83E
ENDCHAR

STARTCHAR char197
ENCODING 197
SWIDTH 25 0
DWIDTH 16 0
BBX 15 19 0 0
BITMAP
0380
06C0
06C0
0380
07C0
0FC0
0FC0
0FE0
1FE0
1FE0
1EF0
3EF0
3EF0
7CF8
7FF8
7FFC
FFFC
F83C
F03E
ENDCHAR

STARTCHAR char198
ENCODING 198
SWIDTH 7 0
DWIDTH 22 0
BBX 21 15 -1 0
BITMAP
07FFF0
07FFF0
0FFFF0
0F3FF0
0F3C00
1F3C00
1F3FF0
1E3FF0
3E3FF0
3E3C00
3FFC00
7FFC00
7FFFF8
783FF8
783FF8
ENDCHAR

STARTCHAR char199
ENCODING 199
SWIDTH 25 0
DWIDTH 16 0
BBX 14 19 1 -4
BITMAP
0F80
1FE0
3FF0
7CF8
7878
F07C
F000
F000
F000
F07C
F878
7FF8
7FF8
3FF0
1FC0
0F00
0F00
0700
0E00
ENDCHAR

STARTCHAR char200
ENCODING 200
SWIDTH 20 0
DWIDTH 15 0
BBX 13 19 1 0
BITMAP
3E00
1E00
0E00
0000
FFF8
FFF8
FFF8
F800
F800
F800
FFE0
FFE0
FFE0
F000
F000
F000
FFF8
FFF8
FFF8
ENDCHAR

STARTCHAR char201
ENCODING 201
SWIDTH 20 0
DWIDTH 15 0
BBX 13 19 1 0
BITMAP
0780
0F00
0E00
0000
FFF8
FFF8
FFF8
F800
F800
F800
FFE0
FFE0
FFE0
F000
F000
F000
FFF8
FFF8
FFF8
ENDCHAR

STARTCHAR char202
ENCODING 202
SWIDTH 20 0
DWIDTH 15 0
BBX 13 19 1 0
BITMAP
1F00
3F80
3B80
0000
FFF8
FFF8
FFF8
F800
F800
F800
FFE0
FFE0
FFE0
F000
F000
F000
FFF8
FFF8
FFF8
ENDCHAR

STARTCHAR char203
ENCODING 203
SWIDTH 20 0
DWIDTH 15 0
BBX 13 19 1 0
BITMAP
7BC0
7BC0
7BC0
0000
FFF8
FFF8
FFF8
F800
F800
F800
FFE0
FFE0
FFE0
F800
F800
F800
FFF8
FFF8
FFF8
ENDCHAR

STARTCHAR char204
ENCODING 204
SWIDTH 30 0
DWIDTH 7 0
BBX 6 19 -1 0
BITMAP
70
78
38
00
3C
3C
3C
3C
3C
3C
3C
3C
3C
3C
3C
3C
3C
3C
3C
ENDCHAR

STARTCHAR char205
ENCODING 205
SWIDTH 30 0
DWIDTH 7 0
BBX 6 19 1 0
BITMAP
3C
78
F0
00
78
78
78
78
78
78
78
78
78
78
78
78
78
78
78
ENDCHAR

STARTCHAR char206
ENCODING 206
SWIDTH 30 0
DWIDTH 7 0
BBX 8 19 -1 0
BITMAP
3C
7E
EF
00
3C
3C
3C
3C
3C
3C
3C
3C
3C
3C
3C
3C
3C
3C
3C
ENDCHAR

STARTCHAR char207
ENCODING 207
SWIDTH 30 0
DWIDTH 7 0
BBX 10 19 -2 0
BITMAP
F3C0
F3C0
F3C0
0000
1F00
1F00
1F00
1F00
1F00
1F00
1F00
1F00
1F00
1F00
1F00
1F00
1F00
1F00
1F00
ENDCHAR

STARTCHAR char209
ENCODING 209
SWIDTH 25 0
DWIDTH 16 0
BBX 13 19 1 0
BITMAP
1FC0
3FC0
3B80
0000
F078
F878
F878
FC78
FE78
FE78
FF78
FFF8
F7F8
F7F8
F3F8
F1F8
F1F8
F0F8
F078
ENDCHAR

STARTCHAR char210
ENCODING 210
SWIDTH 29 0
DWIDTH 17 0
BBX 14 19 1 0
BITMAP
1E00
0F00
0700
0000
0FC0
1FE0
3FF0
7CF8
7878
F07C
F03C
F03C
F03C
F03C
F878
7CF8
3FF0
1FE0
0FC0
ENDCHAR

STARTCHAR char211
ENCODING 211
SWIDTH 29 0
DWIDTH 17 0
BBX 14 19 1 0
BITMAP
07C0
0780
0700
0000
0FC0
1FE0
3FF0
7CF8
7878
F07C
F03C
F03C
F03C
F03C
F878
7CF8
3FF0
1FE0
0FC0
ENDCHAR

STARTCHAR char212
ENCODING 212
SWIDTH 29 0
DWIDTH 17 0
BBX 14 19 1 0
BITMAP
0F80
0F80
1DC0
0000
0FC0
1FE0
3FF0
7CF8
7878
F07C
F03C
F03C
F03C
F03C
F878
7CF8
3FF0
1FE0
0FC0
ENDCHAR

STARTCHAR char213
ENCODING 213
SWIDTH 29 0
DWIDTH 17 0
BBX 14 19 1 0
BITMAP
0EC0
1FC0
1B80
0000
0FC0
1FE0
3FF0
7CF8
7878
F07C
F03C
F03C
F03C
F03C
F878
7CF8
3FF0
1FE0
0FC0
ENDCHAR

STARTCHAR char214
ENCODING 214
SWIDTH 29 0
DWIDTH 17 0
BBX 15 19 0 0
BITMAP
1E78
1E78
1E78
0000
07E0
1FF8
3FFC
7E7C
7C3E
781E
F81E
F81E
F81E
F81E
781E
7C7C
3FFC
1FF8
07E0
ENDCHAR

STARTCHAR char216
ENCODING 216
SWIDTH 29 0
DWIDTH 17 0
BBX 15 17 0 -1
BITMAP
0004
07E6
0FFC
1FF8
3E7C
3C3C
787E
78DE
799E
7B1E
7F1E
3E3C
3E7C
1FF8
3FF0
67E0
6000
ENDCHAR

STARTCHAR char217
ENCODING 217
SWIDTH 25 0
DWIDTH 16 0
BBX 13 19 1 0
BITMAP
3E00
1E00
0F00
0000
F078
F078
F078
F078
F078
F078
F078
F078
F078
F078
F078
F8F8
7FF0
3FE0
1FC0
ENDCHAR

STARTCHAR char218
ENCODING 218
SWIDTH 25 0
DWIDTH 16 0
BBX 13 19 1 0
BITMAP
07C0
0780
0F00
0000
F078
F078
F078
F078
F078
F078
F078
F078
F078
F078
F078
F8F8
7FF0
3FE0
1FC0
ENDCHAR

STARTCHAR char219
ENCODING 219
SWIDTH 25 0
DWIDTH 16 0
BBX 13 19 1 0
BITMAP
1F00
1F80
3BC0
0000
F078
F078
F078
F078
F078
F078
F078
F078
F078
F078
F078
F8F8
7FF0
3FE0
1FC0
ENDCHAR

STARTCHAR char220
ENCODING 220
SWIDTH 25 0
DWIDTH 16 0
BBX 13 19 1 0
BITMAP
3DE0
3DE0
3DE0
0000
F078
F078
F078
F078
F078
F078
F078
F078
F078
F078
F078
F8F8
7FF0
3FE0
1FC0
ENDCHAR

STARTCHAR char222
ENCODING 222
SWIDTH 3 0
DWIDTH 21 0
BBX 0 0 0 0
BITMAP
ENDCHAR

STARTCHAR char223
ENCODING 223
SWIDTH 16 0
DWIDTH 14 0
BBX 12 15 1 0
BITMAP
1F80
7FC0
7FE0
F9E0
F1E0
F1E0
F7C0
F7E0
F1F0
F0F0
F0F0
F1F0
F7E0
F7E0
F780
ENDCHAR

STARTCHAR char224
ENCODING 224
SWIDTH 12 0
DWIDTH 13 0
BBX 12 15 0 0
BITMAP
3E00
1E00
0E00
0000
1F80
3FE0
7FF0
78F0
03F0
3FF0
7EF0
F0F0
FFF0
FFF0
3CF0
ENDCHAR

STARTCHAR char225
ENCODING 225
SWIDTH 12 0
DWIDTH 13 0
BBX 12 15 0 0
BITMAP
07C0
0F80
0F00
0000
1F80
3FE0
7FF0
78F0
03F0
3FF0
7EF0
F0F0
FFF0
FFF0
3CF0
ENDCHAR

STARTCHAR char226
ENCODING 226
SWIDTH 12 0
DWIDTH 13 0
BBX 12 14 0 0
BITMAP
1F00
1F80
3BC0
1F80
3FE0
7FF0
78F0
03F0
3FF0
7EF0
F0F0
FFF0
FFF0
3CF0
ENDCHAR

STARTCHAR char227
ENCODING 227
SWIDTH 12 0
DWIDTH 13 0
BBX 12 15 0 0
BITMAP
1DC0
3FC0
3780
2100
1F80
3FE0
7FF0
78F0
03F0
3FF0
7EF0
F0F0
FFF0
FFF0
3CF0
ENDCHAR

STARTCHAR char228
ENCODING 228
SWIDTH 12 0
DWIDTH 13 0
BBX 12 15 0 0
BITMAP
3DE0
3DE0
3DE0
0000
1F80
3FE0
7FE0
78F0
03F0
3FF0
7EF0
F8F0
FFF0
7FF0
3CF0
ENDCHAR

STARTCHAR char229
ENCODING 229
SWIDTH 12 0
DWIDTH 13 0
BBX 12 16 0 0
BITMAP
0700
0D80
0980
0D80
0700
1F80
3FE0
7FF0
78F0
03F0
3FF0
7EF0
F0F0
FFF0
FFF0
3CF0
ENDCHAR

STARTCHAR char230
ENCODING 230
SWIDTH 42 0
DWIDTH 20 0
BBX 19 11 0 0
BITMAP
1FBE00
7FFF80
7FFFC0
F9E3C0
1FFFC0
7FFFE0
FFE3E0
F1E000
FFFFC0
FFFF80
3E3E00
ENDCHAR

STARTCHAR char231
ENCODING 231
SWIDTH 12 0
DWIDTH 13 0
BBX 12 15 0 -4
BITMAP
0F80
3FC0
7FE0
7DF0
F800
F800
F800
78F0
7FE0
3FE0
1FC0
0F00
0F00
0700
0E00
ENDCHAR

STARTCHAR char232
ENCODING 232
SWIDTH 12 0
DWIDTH 13 0
BBX 12 15 0 0
BITMAP
3E00
1E00
0E00
0000
0F80
3FC0
7FE0
79F0
FEF0
FFF0
F0F0
7800
7FF0
3FE0
1F80
ENDCHAR

STARTCHAR char233
ENCODING 233
SWIDTH 12 0
DWIDTH 13 0
BBX 12 15 0 0
BITMAP
0780
0700
0F00
0000
0F80
3FC0
7FE0
79F0
FEF0
FFF0
F0F0
7800
7FF0
3FE0
1F80
ENDCHAR

STARTCHAR char234
ENCODING 234
SWIDTH 12 0
DWIDTH 13 0
BBX 12 14 0 0
BITMAP
0F00
1F80
3B80
0F80
3FC0
7FE0
79F0
FEF0
FFF0
F0F0
7800
7FF0
3FE0
1F80
ENDCHAR

STARTCHAR char235
ENCODING 235
SWIDTH 12 0
DWIDTH 13 0
BBX 12 15 0 0
BITMAP
7BC0
7BC0
7BC0
0000
0F80
3FC0
7FE0
F9F0
FCF0
FFF0
F0F0
7800
7FF0
3FE0
1F80
ENDCHAR

STARTCHAR char236
ENCODING 236
SWIDTH 30 0
DWIDTH 7 0
BBX 6 15 -1 0
BITMAP
F0
78
38
00
3C
3C
3C
3C
3C
3C
3C
3C
3C
3C
3C
ENDCHAR

STARTCHAR char237
ENCODING 237
SWIDTH 30 0
DWIDTH 7 0
BBX 6 15 1 0
BITMAP
78
70
E0
00
F0
F0
F0
F0
F0
F0
F0
F0
F0
F0
F0
ENDCHAR

STARTCHAR char238
ENCODING 238
SWIDTH 30 0
DWIDTH 7 0
BBX 8 14 -1 0
BITMAP
3C
7E
EE
3C
3C
3C
3C
3C
3C
3C
3C
3C
3C
3C
ENDCHAR

STARTCHAR char239
ENCODING 239
SWIDTH 30 0
DWIDTH 7 0
BBX 9 15 -2 0
BITMAP
F780
F780
F780
0000
1E00
1E00
1E00
1E00
1E00
1E00
1E00
1E00
1E00
1E00
1E00
ENDCHAR

STARTCHAR char241
ENCODING 241
SWIDTH 16 0
DWIDTH 14 0
BBX 11 15 1 0
BITMAP
3980
7F80
7700
4200
F780
FFC0
FFE0
FBE0
F1E0
F1E0
F1E0
F1E0
F1E0
F1E0
F1E0
ENDCHAR

STARTCHAR char242
ENCODING 242
SWIDTH 12 0
DWIDTH 13 0
BBX 12 15 0 0
BITMAP
3E00
1E00
0E00
0000
1F80
3FC0
7FE0
F9F0
F0F0
F0F0
F0F0
F8F0
7FE0
3FC0
0F80
ENDCHAR

STARTCHAR char243
ENCODING 243
SWIDTH 12 0
DWIDTH 13 0
BBX 12 15 0 0
BITMAP
0780
0F00
0F00
0000
1F80
3FC0
7FE0
F9F0
F0F0
F0F0
F0F0
F8F0
7FE0
3FC0
0F80
ENDCHAR

STARTCHAR char244
ENCODING 244
SWIDTH 12 0
DWIDTH 13 0
BBX 12 14 0 0
BITMAP
1F00
1F80
3B80
1F80
3FC0
7FE0
F9F0
F0F0
F0F0
F0F0
F8F0
7FE0
3FC0
0F80
ENDCHAR

STARTCHAR char245
ENCODING 245
SWIDTH 12 0
DWIDTH 13 0
BBX 12 15 0 0
BITMAP
3D80
3F80
3700
2200
1F80
3FC0
7FE0
F9F0
F0F0
F0F0
F0F0
F8F0
7FE0
3FC0
0F80
ENDCHAR

STARTCHAR char246
ENCODING 246
SWIDTH 12 0
DWIDTH 13 0
BBX 12 15 0 0
BITMAP
7DE0
7DE0
7DE0
7C00
0F80
3FC0
7FE0
F9F0
F0F0
F0F0
F0F0
F8F0
7FE0
3FC0
0F80
ENDCHAR

STARTCHAR char247
ENCODING 247
SWIDTH 8 0
DWIDTH 12 0
BBX 11 9 0 1
BITMAP
0C00
0C00
0C00
0000
FFE0
0000
0C00
0C00
0C00
ENDCHAR

STARTCHAR char248
ENCODING 248
SWIDTH 12 0
DWIDTH 13 0
BBX 12 12 0 -1
BITMAP
1FA0
3FE0
7FE0
F9F0
F3F0
F6F0
FCF0
FCF0
7FE0
7FC0
4F80
4000
ENDCHAR

STARTCHAR char249
ENCODING 249
SWIDTH 16 0
DWIDTH 14 0
BBX 11 15 1 0
BITMAP
7C00
3C00
1E00
0000
F1E0
F1E0
F1E0
F1E0
F1E0
F1E0
F1E0
F3E0
FFE0
7FE0
3DE0
ENDCHAR

STARTCHAR char250
ENCODING 250
SWIDTH 16 0
DWIDTH 14 0
BBX 11 15 1 0
BITMAP
0F80
0F00
1E00
0000
F1E0
F1E0
F1E0
F1E0
F1E0
F1E0
F1E0
F3E0
FFE0
7FE0
3DE0
ENDCHAR

STARTCHAR char251
ENCODING 251
SWIDTH 16 0
DWIDTH 14 0
BBX 11 14 1 0
BITMAP
1E00
3F00
7380
F1E0
F1E0
F1E0
F1E0
F1E0
F1E0
F1E0
F3E0
FFE0
7FE0
3DE0
ENDCHAR

STARTCHAR char252
ENCODING 252
SWIDTH 16 0
DWIDTH 14 0
BBX 11 15 1 0
BITMAP
7BC0
7BC0
7BC0
0000
F1E0
F1E0
F1E0
F1E0
F1E0
F1E0
F1E0
F3E0
FFE0
7FE0
3DE0
ENDCHAR

STARTCHAR char255
ENCODING 255
SWIDTH 12 0
DWIDTH 13 0
BBX 12 18 0 -3
BITMAP
7BC0
7BC0
7BC0
0000
F9F0
F9E0
79E0
79E0
7BC0
3FC0
3FC0
1F80
1F80
1F80
0F00
7F00
7E00
7C00
ENDCHAR
ENDFONT
